<?xml version="1.0" encoding="UTF-8"?>
<!DOCTYPE svg PUBLIC "-//W3C//DTD SVG 1.1//EN" "http://www.w3.org/Graphics/SVG/1.1/DTD/svg11.dtd">
<svg xmlns="http://www.w3.org/2000/svg" version="1.1" width="72px" height="72px" style="shape-rendering:geometricPrecision; text-rendering:geometricPrecision; image-rendering:optimizeQuality; fill-rule:evenodd; clip-rule:evenodd" xmlns:xlink="http://www.w3.org/1999/xlink">
<g><path style="opacity:1" fill="#fdfefe" d="M -0.5,-0.5 C 23.5,-0.5 47.5,-0.5 71.5,-0.5C 71.5,23.5 71.5,47.5 71.5,71.5C 47.5,71.5 23.5,71.5 -0.5,71.5C -0.5,47.5 -0.5,23.5 -0.5,-0.5 Z"/></g>
<g><path style="opacity:1" fill="#2bb7e8" d="M 7.5,52.5 C 7.19,49.2869 7.52333,46.2869 8.5,43.5C 16.8059,48.3216 25.1392,53.155 33.5,58C 36.898,58.1597 39.898,56.993 42.5,54.5C 31.1177,47.1373 19.451,40.1373 7.5,33.5C 6.33836,28.8687 6.17169,24.202 7,19.5C 16.2519,13.4557 25.7519,7.78908 35.5,2.5C 44.8333,7.83333 54.1667,13.1667 63.5,18.5C 64.657,21.7844 64.8236,25.1177 64,28.5C 54.509,22.3413 44.6756,17.1746 34.5,13C 32.3359,13.9143 30.3359,15.081 28.5,16.5C 39.8823,23.8627 51.549,30.8627 63.5,37.5C 64.8333,42.5 64.8333,47.5 63.5,52.5C 54.1667,57.8333 44.8333,63.1667 35.5,68.5C 26.1393,63.1548 16.806,57.8215 7.5,52.5 Z"/></g>
<g><path style="opacity:1" fill="#fbfdfe" d="M 18.5,21.5 C 30.6353,28.0684 42.6353,34.9018 54.5,42C 56.1723,45.1429 55.5056,47.6429 52.5,49.5C 40.3374,42.9197 28.3374,36.0863 16.5,29C 14.8397,25.7773 15.5064,23.2773 18.5,21.5 Z"/></g>
<g><path style="opacity:1" fill="#a8e2f5" d="M 8.5,43.5 C 7.52333,46.2869 7.19,49.2869 7.5,52.5C 6.19438,49.3132 6.19438,45.9798 7.5,42.5C 8.10667,42.6236 8.44001,42.9569 8.5,43.5 Z"/></g>
</svg>
